<svg id="svg" version="1.1" xmlns="http://www.w3.org/2000/svg" xmlns:xlink="http://www.w3.org/1999/xlink" width="400" height="400" viewBox="0, 0, 400,400"><g id="svgg"><path id="path0" d="M48.000 156.000 L 48.000 168.000 52.000 168.000 L 56.000 168.000 56.000 216.000 L 56.000 264.000 52.000 264.000 L 48.000 264.000 48.000 268.000 L 48.000 272.000 44.000 272.000 L 40.000 272.000 40.000 284.000 L 40.000 296.000 72.000 296.000 L 104.000 296.000 104.000 284.000 L 104.000 272.000 100.000 272.000 L 96.000 272.000 96.000 240.000 L 96.000 208.000 100.000 208.000 L 104.000 208.000 104.000 224.000 L 104.000 240.000 108.000 240.000 L 112.000 240.000 112.000 244.000 L 112.000 248.000 124.000 248.000 L 136.000 248.000 136.000 244.000 L 136.000 240.000 140.000 240.000 L 144.000 240.000 144.000 224.000 L 144.000 208.000 148.000 208.000 L 152.000 208.000 152.000 240.000 L 152.000 272.000 148.000 272.000 L 144.000 272.000 144.000 284.000 L 144.000 296.000 204.000 296.000 L 264.000 296.000 264.000 284.000 L 264.000 272.000 260.000 272.000 L 256.000 272.000 256.000 264.000 L 256.000 256.000 260.000 256.000 L 264.000 256.000 264.000 252.000 L 264.000 248.000 268.000 248.000 L 272.000 248.000 272.000 252.000 L 272.000 256.000 276.000 256.000 L 280.000 256.000 280.000 260.000 L 280.000 264.000 284.000 264.000 L 288.000 264.000 288.000 268.000 L 288.000 272.000 292.000 272.000 L 296.000 272.000 296.000 284.000 L 296.000 296.000 324.000 296.000 L 352.000 296.000 352.000 284.000 L 352.000 272.000 348.000 272.000 L 344.000 272.000 344.000 268.000 L 344.000 264.000 340.000 264.000 L 336.000 264.000 336.000 260.000 L 336.000 256.000 332.000 256.000 L 328.000 256.000 328.000 252.000 L 328.000 248.000 320.000 248.000 L 312.000 248.000 312.000 240.000 L 312.000 232.000 308.000 232.000 L 304.000 232.000 304.000 228.000 L 304.000 224.000 300.000 224.000 L 296.000 224.000 296.000 220.000 L 296.000 216.000 300.000 216.000 L 304.000 216.000 304.000 212.000 L 304.000 208.000 308.000 208.000 L 312.000 208.000 312.000 204.000 L 312.000 200.000 316.000 200.000 L 320.000 200.000 320.000 196.000 L 320.000 192.000 324.000 192.000 L 328.000 192.000 328.000 188.000 L 328.000 184.000 332.000 184.000 L 336.000 184.000 336.000 180.000 L 336.000 176.000 340.000 176.000 L 344.000 176.000 344.000 172.000 L 344.000 168.000 348.000 168.000 L 352.000 168.000 352.000 156.000 L 352.000 144.000 324.000 144.000 L 296.000 144.000 296.000 156.000 L 296.000 168.000 292.000 168.000 L 288.000 168.000 288.000 172.000 L 288.000 176.000 284.000 176.000 L 280.000 176.000 280.000 180.000 L 280.000 184.000 276.000 184.000 L 272.000 184.000 272.000 188.000 L 272.000 192.000 268.000 192.000 L 264.000 192.000 264.000 196.000 L 264.000 200.000 260.000 200.000 L 256.000 200.000 256.000 184.000 L 256.000 168.000 260.000 168.000 L 264.000 168.000 264.000 156.000 L 264.000 144.000 236.000 144.000 L 208.000 144.000 208.000 156.000 L 208.000 168.000 212.000 168.000 L 216.000 168.000 216.000 220.000 L 216.000 272.000 208.000 272.000 L 200.000 272.000 200.000 268.000 L 200.000 264.000 196.000 264.000 L 192.000 264.000 192.000 216.000 L 192.000 168.000 196.000 168.000 L 200.000 168.000 200.000 156.000 L 200.000 144.000 168.000 144.000 L 136.000 144.000 136.000 152.000 L 136.000 160.000 132.000 160.000 L 128.000 160.000 128.000 164.000 L 128.000 168.000 124.000 168.000 L 120.000 168.000 120.000 164.000 L 120.000 160.000 116.000 160.000 L 112.000 160.000 112.000 152.000 L 112.000 144.000 80.000 144.000 L 48.000 144.000 48.000 156.000 M104.000 156.000 L 104.000 160.000 100.000 160.000 L 96.000 160.000 96.000 164.000 L 96.000 168.000 104.000 168.000 L 112.000 168.000 112.000 172.000 L 112.000 176.000 116.000 176.000 L 120.000 176.000 120.000 180.000 L 120.000 184.000 124.000 184.000 L 128.000 184.000 128.000 180.000 L 128.000 176.000 132.000 176.000 L 136.000 176.000 136.000 172.000 L 136.000 168.000 144.000 168.000 L 152.000 168.000 152.000 164.000 L 152.000 160.000 148.000 160.000 L 144.000 160.000 144.000 156.000 L 144.000 152.000 168.000 152.000 L 192.000 152.000 192.000 156.000 L 192.000 160.000 188.000 160.000 L 184.000 160.000 184.000 216.000 L 184.000 272.000 188.000 272.000 L 192.000 272.000 192.000 276.000 L 192.000 280.000 196.000 280.000 L 200.000 280.000 200.000 284.000 L 200.000 288.000 176.000 288.000 L 152.000 288.000 152.000 284.000 L 152.000 280.000 156.000 280.000 L 160.000 280.000 160.000 232.000 L 160.000 184.000 156.000 184.000 L 152.000 184.000 152.000 188.000 L 152.000 192.000 148.000 192.000 L 144.000 192.000 144.000 200.000 L 144.000 208.000 140.000 208.000 L 136.000 208.000 136.000 220.000 L 136.000 232.000 132.000 232.000 L 128.000 232.000 128.000 236.000 L 128.000 240.000 124.000 240.000 L 120.000 240.000 120.000 236.000 L 120.000 232.000 116.000 232.000 L 112.000 232.000 112.000 220.000 L 112.000 208.000 108.000 208.000 L 104.000 208.000 104.000 200.000 L 104.000 192.000 100.000 192.000 L 96.000 192.000 96.000 188.000 L 96.000 184.000 92.000 184.000 L 88.000 184.000 88.000 232.000 L 88.000 280.000 92.000 280.000 L 96.000 280.000 96.000 284.000 L 96.000 288.000 72.000 288.000 L 48.000 288.000 48.000 284.000 L 48.000 280.000 52.000 280.000 L 56.000 280.000 56.000 276.000 L 56.000 272.000 60.000 272.000 L 64.000 272.000 64.000 216.000 L 64.000 160.000 60.000 160.000 L 56.000 160.000 56.000 156.000 L 56.000 152.000 80.000 152.000 L 104.000 152.000 104.000 156.000 M256.000 156.000 L 256.000 160.000 252.000 160.000 L 248.000 160.000 248.000 192.000 L 248.000 224.000 252.000 224.000 L 256.000 224.000 256.000 220.000 L 256.000 216.000 260.000 216.000 L 264.000 216.000 264.000 212.000 L 264.000 208.000 268.000 208.000 L 272.000 208.000 272.000 204.000 L 272.000 200.000 276.000 200.000 L 280.000 200.000 280.000 196.000 L 280.000 192.000 284.000 192.000 L 288.000 192.000 288.000 188.000 L 288.000 184.000 292.000 184.000 L 296.000 184.000 296.000 180.000 L 296.000 176.000 300.000 176.000 L 304.000 176.000 304.000 172.000 L 304.000 168.000 308.000 168.000 L 312.000 168.000 312.000 164.000 L 312.000 160.000 308.000 160.000 L 304.000 160.000 304.000 156.000 L 304.000 152.000 324.000 152.000 L 344.000 152.000 344.000 156.000 L 344.000 160.000 340.000 160.000 L 336.000 160.000 336.000 164.000 L 336.000 168.000 332.000 168.000 L 328.000 168.000 328.000 172.000 L 328.000 176.000 324.000 176.000 L 320.000 176.000 320.000 180.000 L 320.000 184.000 316.000 184.000 L 312.000 184.000 312.000 188.000 L 312.000 192.000 308.000 192.000 L 304.000 192.000 304.000 196.000 L 304.000 200.000 300.000 200.000 L 296.000 200.000 296.000 204.000 L 296.000 208.000 292.000 208.000 L 288.000 208.000 288.000 212.000 L 288.000 216.000 284.000 216.000 L 280.000 216.000 280.000 220.000 L 280.000 224.000 284.000 224.000 L 288.000 224.000 288.000 228.000 L 288.000 232.000 292.000 232.000 L 296.000 232.000 296.000 236.000 L 296.000 240.000 300.000 240.000 L 304.000 240.000 304.000 244.000 L 304.000 248.000 308.000 248.000 L 312.000 248.000 312.000 252.000 L 312.000 256.000 316.000 256.000 L 320.000 256.000 320.000 260.000 L 320.000 264.000 324.000 264.000 L 328.000 264.000 328.000 268.000 L 328.000 272.000 332.000 272.000 L 336.000 272.000 336.000 276.000 L 336.000 280.000 340.000 280.000 L 344.000 280.000 344.000 284.000 L 344.000 288.000 324.000 288.000 L 304.000 288.000 304.000 284.000 L 304.000 280.000 308.000 280.000 L 312.000 280.000 312.000 276.000 L 312.000 272.000 308.000 272.000 L 304.000 272.000 304.000 268.000 L 304.000 264.000 300.000 264.000 L 296.000 264.000 296.000 260.000 L 296.000 256.000 292.000 256.000 L 288.000 256.000 288.000 252.000 L 288.000 248.000 284.000 248.000 L 280.000 248.000 280.000 244.000 L 280.000 240.000 276.000 240.000 L 272.000 240.000 272.000 236.000 L 272.000 232.000 268.000 232.000 L 264.000 232.000 264.000 236.000 L 264.000 240.000 260.000 240.000 L 256.000 240.000 256.000 244.000 L 256.000 248.000 252.000 248.000 L 248.000 248.000 248.000 264.000 L 248.000 280.000 252.000 280.000 L 256.000 280.000 256.000 284.000 L 256.000 288.000 236.000 288.000 L 216.000 288.000 216.000 284.000 L 216.000 280.000 220.000 280.000 L 224.000 280.000 224.000 220.000 L 224.000 160.000 220.000 160.000 L 216.000 160.000 216.000 156.000 L 216.000 152.000 236.000 152.000 L 256.000 152.000 256.000 156.000 " stroke="none" fill="#fcfce5" fill-rule="evenodd"></path><path id="path1" d="M264.000 140.000 L 264.000 152.000 268.000 152.000 L 272.000 152.000 272.000 156.000 L 272.000 160.000 276.000 160.000 L 280.000 160.000 280.000 164.000 L 280.000 168.000 288.000 168.000 L 296.000 168.000 296.000 160.000 L 296.000 152.000 292.000 152.000 L 288.000 152.000 288.000 148.000 L 288.000 144.000 284.000 144.000 L 280.000 144.000 280.000 140.000 L 280.000 136.000 276.000 136.000 L 272.000 136.000 272.000 132.000 L 272.000 128.000 268.000 128.000 L 264.000 128.000 264.000 140.000 M320.000 200.000 L 320.000 208.000 324.000 208.000 L 328.000 208.000 328.000 212.000 L 328.000 216.000 332.000 216.000 L 336.000 216.000 336.000 220.000 L 336.000 224.000 340.000 224.000 L 344.000 224.000 344.000 228.000 L 344.000 232.000 348.000 232.000 L 352.000 232.000 352.000 236.000 L 352.000 240.000 356.000 240.000 L 360.000 240.000 360.000 244.000 L 360.000 248.000 364.000 248.000 L 368.000 248.000 368.000 252.000 L 368.000 256.000 372.000 256.000 L 376.000 256.000 376.000 260.000 L 376.000 264.000 380.000 264.000 L 384.000 264.000 384.000 276.000 L 384.000 288.000 368.000 288.000 L 352.000 288.000 352.000 292.000 L 352.000 296.000 324.000 296.000 L 296.000 296.000 296.000 292.000 L 296.000 288.000 280.000 288.000 L 264.000 288.000 264.000 292.000 L 264.000 296.000 212.000 296.000 L 160.000 296.000 160.000 304.000 L 160.000 312.000 268.000 312.000 L 376.000 312.000 376.000 308.000 L 376.000 304.000 384.000 304.000 L 392.000 304.000 392.000 300.000 L 392.000 296.000 396.000 296.000 L 400.000 296.000 400.000 276.000 L 400.000 256.000 396.000 256.000 L 392.000 256.000 392.000 252.000 L 392.000 248.000 388.000 248.000 L 384.000 248.000 384.000 244.000 L 384.000 240.000 380.000 240.000 L 376.000 240.000 376.000 236.000 L 376.000 232.000 372.000 232.000 L 368.000 232.000 368.000 228.000 L 368.000 224.000 364.000 224.000 L 360.000 224.000 360.000 220.000 L 360.000 216.000 356.000 216.000 L 352.000 216.000 352.000 212.000 L 352.000 208.000 348.000 208.000 L 344.000 208.000 344.000 204.000 L 344.000 200.000 340.000 200.000 L 336.000 200.000 336.000 196.000 L 336.000 192.000 328.000 192.000 L 320.000 192.000 320.000 200.000 " stroke="none" fill="#fc4a04" fill-rule="evenodd"></path><path id="path2" d="M184.000 76.000 L 184.000 80.000 180.000 80.000 L 176.000 80.000 176.000 84.000 L 176.000 88.000 172.000 88.000 L 168.000 88.000 168.000 92.000 L 168.000 96.000 164.000 96.000 L 160.000 96.000 160.000 100.000 L 160.000 104.000 156.000 104.000 L 152.000 104.000 152.000 108.000 L 152.000 112.000 148.000 112.000 L 144.000 112.000 144.000 116.000 L 144.000 120.000 140.000 120.000 L 136.000 120.000 136.000 124.000 L 136.000 128.000 132.000 128.000 L 128.000 128.000 128.000 132.000 L 128.000 136.000 124.000 136.000 L 120.000 136.000 120.000 140.000 L 120.000 144.000 116.000 144.000 L 112.000 144.000 112.000 152.000 L 112.000 160.000 120.000 160.000 L 128.000 160.000 128.000 156.000 L 128.000 152.000 132.000 152.000 L 136.000 152.000 136.000 148.000 L 136.000 144.000 140.000 144.000 L 144.000 144.000 144.000 140.000 L 144.000 136.000 148.000 136.000 L 152.000 136.000 152.000 132.000 L 152.000 128.000 156.000 128.000 L 160.000 128.000 160.000 124.000 L 160.000 120.000 164.000 120.000 L 168.000 120.000 168.000 116.000 L 168.000 112.000 172.000 112.000 L 176.000 112.000 176.000 108.000 L 176.000 104.000 180.000 104.000 L 184.000 104.000 184.000 100.000 L 184.000 96.000 200.000 96.000 L 216.000 96.000 216.000 100.000 L 216.000 104.000 220.000 104.000 L 224.000 104.000 224.000 108.000 L 224.000 112.000 228.000 112.000 L 232.000 112.000 232.000 116.000 L 232.000 120.000 236.000 120.000 L 240.000 120.000 240.000 124.000 L 240.000 128.000 236.000 128.000 L 232.000 128.000 232.000 132.000 L 232.000 136.000 228.000 136.000 L 224.000 136.000 224.000 140.000 L 224.000 144.000 228.000 144.000 L 232.000 144.000 232.000 140.000 L 232.000 136.000 236.000 136.000 L 240.000 136.000 240.000 132.000 L 240.000 128.000 244.000 128.000 L 248.000 128.000 248.000 132.000 L 248.000 136.000 252.000 136.000 L 256.000 136.000 256.000 140.000 L 256.000 144.000 260.000 144.000 L 264.000 144.000 264.000 132.000 L 264.000 120.000 260.000 120.000 L 256.000 120.000 256.000 116.000 L 256.000 112.000 252.000 112.000 L 248.000 112.000 248.000 108.000 L 248.000 104.000 244.000 104.000 L 240.000 104.000 240.000 100.000 L 240.000 96.000 236.000 96.000 L 232.000 96.000 232.000 92.000 L 232.000 88.000 228.000 88.000 L 224.000 88.000 224.000 84.000 L 224.000 80.000 220.000 80.000 L 216.000 80.000 216.000 76.000 L 216.000 72.000 200.000 72.000 L 184.000 72.000 184.000 76.000 M200.000 196.000 L 200.000 224.000 204.000 224.000 L 208.000 224.000 208.000 232.000 L 208.000 240.000 212.000 240.000 L 216.000 240.000 216.000 232.000 L 216.000 224.000 212.000 224.000 L 208.000 224.000 208.000 196.000 L 208.000 168.000 204.000 168.000 L 200.000 168.000 200.000 196.000 M48.000 212.000 L 48.000 216.000 44.000 216.000 L 40.000 216.000 40.000 220.000 L 40.000 224.000 36.000 224.000 L 32.000 224.000 32.000 228.000 L 32.000 232.000 28.000 232.000 L 24.000 232.000 24.000 236.000 L 24.000 240.000 20.000 240.000 L 16.000 240.000 16.000 244.000 L 16.000 248.000 12.000 248.000 L 8.000 248.000 8.000 252.000 L 8.000 256.000 4.000 256.000 L 0.000 256.000 0.000 276.000 L 0.000 296.000 4.000 296.000 L 8.000 296.000 8.000 300.000 L 8.000 304.000 16.000 304.000 L 24.000 304.000 24.000 308.000 L 24.000 312.000 92.000 312.000 L 160.000 312.000 160.000 304.000 L 160.000 296.000 152.000 296.000 L 144.000 296.000 144.000 292.000 L 144.000 288.000 124.000 288.000 L 104.000 288.000 104.000 292.000 L 104.000 296.000 72.000 296.000 L 40.000 296.000 40.000 292.000 L 40.000 288.000 28.000 288.000 L 16.000 288.000 16.000 276.000 L 16.000 264.000 20.000 264.000 L 24.000 264.000 24.000 260.000 L 24.000 256.000 28.000 256.000 L 32.000 256.000 32.000 252.000 L 32.000 248.000 36.000 248.000 L 40.000 248.000 40.000 244.000 L 40.000 240.000 44.000 240.000 L 48.000 240.000 48.000 236.000 L 48.000 232.000 52.000 232.000 L 56.000 232.000 56.000 220.000 L 56.000 208.000 52.000 208.000 L 48.000 208.000 48.000 212.000 M144.000 212.000 L 144.000 216.000 148.000 216.000 L 152.000 216.000 152.000 212.000 L 152.000 208.000 148.000 208.000 L 144.000 208.000 144.000 212.000 M96.000 228.000 L 96.000 232.000 100.000 232.000 L 104.000 232.000 104.000 228.000 L 104.000 224.000 100.000 224.000 L 96.000 224.000 96.000 228.000 M144.000 236.000 L 144.000 240.000 148.000 240.000 L 152.000 240.000 152.000 236.000 L 152.000 232.000 148.000 232.000 L 144.000 232.000 144.000 236.000 M344.000 244.000 L 344.000 248.000 340.000 248.000 L 336.000 248.000 336.000 252.000 L 336.000 256.000 340.000 256.000 L 344.000 256.000 344.000 252.000 L 344.000 248.000 348.000 248.000 L 352.000 248.000 352.000 244.000 L 352.000 240.000 348.000 240.000 L 344.000 240.000 344.000 244.000 M264.000 276.000 L 264.000 280.000 280.000 280.000 L 296.000 280.000 296.000 276.000 L 296.000 272.000 280.000 272.000 L 264.000 272.000 264.000 276.000 " stroke="none" fill="#fca30b" fill-rule="evenodd"></path><path id="path3" d="M184.000 100.000 L 184.000 104.000 180.000 104.000 L 176.000 104.000 176.000 108.000 L 176.000 112.000 172.000 112.000 L 168.000 112.000 168.000 116.000 L 168.000 120.000 164.000 120.000 L 160.000 120.000 160.000 124.000 L 160.000 128.000 156.000 128.000 L 152.000 128.000 152.000 132.000 L 152.000 136.000 148.000 136.000 L 144.000 136.000 144.000 140.000 L 144.000 144.000 172.000 144.000 L 200.000 144.000 200.000 156.000 L 200.000 168.000 196.000 168.000 L 192.000 168.000 192.000 216.000 L 192.000 264.000 196.000 264.000 L 200.000 264.000 200.000 268.000 L 200.000 272.000 208.000 272.000 L 216.000 272.000 216.000 256.000 L 216.000 240.000 212.000 240.000 L 208.000 240.000 208.000 232.000 L 208.000 224.000 212.000 224.000 L 216.000 224.000 216.000 196.000 L 216.000 168.000 212.000 168.000 L 208.000 168.000 208.000 156.000 L 208.000 144.000 216.000 144.000 L 224.000 144.000 224.000 140.000 L 224.000 136.000 228.000 136.000 L 232.000 136.000 232.000 140.000 L 232.000 144.000 244.000 144.000 L 256.000 144.000 256.000 140.000 L 256.000 136.000 252.000 136.000 L 248.000 136.000 248.000 132.000 L 248.000 128.000 244.000 128.000 L 240.000 128.000 240.000 124.000 L 240.000 120.000 236.000 120.000 L 232.000 120.000 232.000 116.000 L 232.000 112.000 228.000 112.000 L 224.000 112.000 224.000 108.000 L 224.000 104.000 220.000 104.000 L 216.000 104.000 216.000 100.000 L 216.000 96.000 200.000 96.000 L 184.000 96.000 184.000 100.000 M240.000 132.000 L 240.000 136.000 236.000 136.000 L 232.000 136.000 232.000 132.000 L 232.000 128.000 236.000 128.000 L 240.000 128.000 240.000 132.000 M128.000 156.000 L 128.000 160.000 124.000 160.000 L 120.000 160.000 120.000 164.000 L 120.000 168.000 124.000 168.000 L 128.000 168.000 128.000 164.000 L 128.000 160.000 132.000 160.000 L 136.000 160.000 136.000 156.000 L 136.000 152.000 132.000 152.000 L 128.000 152.000 128.000 156.000 M264.000 160.000 L 264.000 168.000 260.000 168.000 L 256.000 168.000 256.000 184.000 L 256.000 200.000 260.000 200.000 L 264.000 200.000 264.000 196.000 L 264.000 192.000 268.000 192.000 L 272.000 192.000 272.000 188.000 L 272.000 184.000 276.000 184.000 L 280.000 184.000 280.000 180.000 L 280.000 176.000 284.000 176.000 L 288.000 176.000 288.000 172.000 L 288.000 168.000 284.000 168.000 L 280.000 168.000 280.000 164.000 L 280.000 160.000 276.000 160.000 L 272.000 160.000 272.000 156.000 L 272.000 152.000 268.000 152.000 L 264.000 152.000 264.000 160.000 M208.000 196.000 L 208.000 224.000 204.000 224.000 L 200.000 224.000 200.000 196.000 L 200.000 168.000 204.000 168.000 L 208.000 168.000 208.000 196.000 M312.000 204.000 L 312.000 208.000 308.000 208.000 L 304.000 208.000 304.000 212.000 L 304.000 216.000 300.000 216.000 L 296.000 216.000 296.000 220.000 L 296.000 224.000 300.000 224.000 L 304.000 224.000 304.000 228.000 L 304.000 232.000 308.000 232.000 L 312.000 232.000 312.000 240.000 L 312.000 248.000 320.000 248.000 L 328.000 248.000 328.000 252.000 L 328.000 256.000 332.000 256.000 L 336.000 256.000 336.000 260.000 L 336.000 264.000 340.000 264.000 L 344.000 264.000 344.000 268.000 L 344.000 272.000 348.000 272.000 L 352.000 272.000 352.000 280.000 L 352.000 288.000 368.000 288.000 L 384.000 288.000 384.000 276.000 L 384.000 264.000 380.000 264.000 L 376.000 264.000 376.000 260.000 L 376.000 256.000 372.000 256.000 L 368.000 256.000 368.000 252.000 L 368.000 248.000 364.000 248.000 L 360.000 248.000 360.000 244.000 L 360.000 240.000 356.000 240.000 L 352.000 240.000 352.000 236.000 L 352.000 232.000 348.000 232.000 L 344.000 232.000 344.000 228.000 L 344.000 224.000 340.000 224.000 L 336.000 224.000 336.000 220.000 L 336.000 216.000 332.000 216.000 L 328.000 216.000 328.000 212.000 L 328.000 208.000 324.000 208.000 L 320.000 208.000 320.000 204.000 L 320.000 200.000 316.000 200.000 L 312.000 200.000 312.000 204.000 M96.000 216.000 L 96.000 224.000 100.000 224.000 L 104.000 224.000 104.000 216.000 L 104.000 208.000 100.000 208.000 L 96.000 208.000 96.000 216.000 M144.000 224.000 L 144.000 232.000 148.000 232.000 L 152.000 232.000 152.000 224.000 L 152.000 216.000 148.000 216.000 L 144.000 216.000 144.000 224.000 M48.000 236.000 L 48.000 240.000 44.000 240.000 L 40.000 240.000 40.000 244.000 L 40.000 248.000 36.000 248.000 L 32.000 248.000 32.000 252.000 L 32.000 256.000 28.000 256.000 L 24.000 256.000 24.000 260.000 L 24.000 264.000 20.000 264.000 L 16.000 264.000 16.000 276.000 L 16.000 288.000 28.000 288.000 L 40.000 288.000 40.000 280.000 L 40.000 272.000 44.000 272.000 L 48.000 272.000 48.000 268.000 L 48.000 264.000 52.000 264.000 L 56.000 264.000 56.000 248.000 L 56.000 232.000 52.000 232.000 L 48.000 232.000 48.000 236.000 M96.000 252.000 L 96.000 272.000 100.000 272.000 L 104.000 272.000 104.000 280.000 L 104.000 288.000 124.000 288.000 L 144.000 288.000 144.000 280.000 L 144.000 272.000 148.000 272.000 L 152.000 272.000 152.000 256.000 L 152.000 240.000 144.000 240.000 L 136.000 240.000 136.000 244.000 L 136.000 248.000 124.000 248.000 L 112.000 248.000 112.000 244.000 L 112.000 240.000 108.000 240.000 L 104.000 240.000 104.000 236.000 L 104.000 232.000 100.000 232.000 L 96.000 232.000 96.000 252.000 M352.000 244.000 L 352.000 248.000 348.000 248.000 L 344.000 248.000 344.000 252.000 L 344.000 256.000 340.000 256.000 L 336.000 256.000 336.000 252.000 L 336.000 248.000 340.000 248.000 L 344.000 248.000 344.000 244.000 L 344.000 240.000 348.000 240.000 L 352.000 240.000 352.000 244.000 M264.000 252.000 L 264.000 256.000 260.000 256.000 L 256.000 256.000 256.000 264.000 L 256.000 272.000 272.000 272.000 L 288.000 272.000 288.000 268.000 L 288.000 264.000 284.000 264.000 L 280.000 264.000 280.000 260.000 L 280.000 256.000 276.000 256.000 L 272.000 256.000 272.000 252.000 L 272.000 248.000 268.000 248.000 L 264.000 248.000 264.000 252.000 M264.000 284.000 L 264.000 288.000 280.000 288.000 L 296.000 288.000 296.000 284.000 L 296.000 280.000 280.000 280.000 L 264.000 280.000 264.000 284.000 " stroke="none" fill="#040404" fill-rule="evenodd"></path><path id="path4" d="M56.000 156.000 L 56.000 160.000 60.000 160.000 L 64.000 160.000 64.000 216.000 L 64.000 272.000 60.000 272.000 L 56.000 272.000 56.000 276.000 L 56.000 280.000 52.000 280.000 L 48.000 280.000 48.000 284.000 L 48.000 288.000 72.000 288.000 L 96.000 288.000 96.000 284.000 L 96.000 280.000 92.000 280.000 L 88.000 280.000 88.000 232.000 L 88.000 184.000 92.000 184.000 L 96.000 184.000 96.000 188.000 L 96.000 192.000 100.000 192.000 L 104.000 192.000 104.000 200.000 L 104.000 208.000 108.000 208.000 L 112.000 208.000 112.000 220.000 L 112.000 232.000 116.000 232.000 L 120.000 232.000 120.000 236.000 L 120.000 240.000 124.000 240.000 L 128.000 240.000 128.000 236.000 L 128.000 232.000 132.000 232.000 L 136.000 232.000 136.000 220.000 L 136.000 208.000 140.000 208.000 L 144.000 208.000 144.000 200.000 L 144.000 192.000 148.000 192.000 L 152.000 192.000 152.000 188.000 L 152.000 184.000 156.000 184.000 L 160.000 184.000 160.000 232.000 L 160.000 280.000 156.000 280.000 L 152.000 280.000 152.000 284.000 L 152.000 288.000 176.000 288.000 L 200.000 288.000 200.000 284.000 L 200.000 280.000 196.000 280.000 L 192.000 280.000 192.000 276.000 L 192.000 272.000 188.000 272.000 L 184.000 272.000 184.000 216.000 L 184.000 160.000 188.000 160.000 L 192.000 160.000 192.000 156.000 L 192.000 152.000 168.000 152.000 L 144.000 152.000 144.000 156.000 L 144.000 160.000 148.000 160.000 L 152.000 160.000 152.000 164.000 L 152.000 168.000 144.000 168.000 L 136.000 168.000 136.000 172.000 L 136.000 176.000 132.000 176.000 L 128.000 176.000 128.000 180.000 L 128.000 184.000 124.000 184.000 L 120.000 184.000 120.000 180.000 L 120.000 176.000 116.000 176.000 L 112.000 176.000 112.000 172.000 L 112.000 168.000 104.000 168.000 L 96.000 168.000 96.000 164.000 L 96.000 160.000 100.000 160.000 L 104.000 160.000 104.000 156.000 L 104.000 152.000 80.000 152.000 L 56.000 152.000 56.000 156.000 M216.000 156.000 L 216.000 160.000 220.000 160.000 L 224.000 160.000 224.000 220.000 L 224.000 280.000 220.000 280.000 L 216.000 280.000 216.000 284.000 L 216.000 288.000 236.000 288.000 L 256.000 288.000 256.000 284.000 L 256.000 280.000 252.000 280.000 L 248.000 280.000 248.000 264.000 L 248.000 248.000 252.000 248.000 L 256.000 248.000 256.000 244.000 L 256.000 240.000 260.000 240.000 L 264.000 240.000 264.000 236.000 L 264.000 232.000 268.000 232.000 L 272.000 232.000 272.000 236.000 L 272.000 240.000 276.000 240.000 L 280.000 240.000 280.000 244.000 L 280.000 248.000 284.000 248.000 L 288.000 248.000 288.000 252.000 L 288.000 256.000 292.000 256.000 L 296.000 256.000 296.000 260.000 L 296.000 264.000 300.000 264.000 L 304.000 264.000 304.000 268.000 L 304.000 272.000 308.000 272.000 L 312.000 272.000 312.000 276.000 L 312.000 280.000 308.000 280.000 L 304.000 280.000 304.000 284.000 L 304.000 288.000 324.000 288.000 L 344.000 288.000 344.000 284.000 L 344.000 280.000 340.000 280.000 L 336.000 280.000 336.000 276.000 L 336.000 272.000 332.000 272.000 L 328.000 272.000 328.000 268.000 L 328.000 264.000 324.000 264.000 L 320.000 264.000 320.000 260.000 L 320.000 256.000 316.000 256.000 L 312.000 256.000 312.000 252.000 L 312.000 248.000 308.000 248.000 L 304.000 248.000 304.000 244.000 L 304.000 240.000 300.000 240.000 L 296.000 240.000 296.000 236.000 L 296.000 232.000 292.000 232.000 L 288.000 232.000 288.000 228.000 L 288.000 224.000 284.000 224.000 L 280.000 224.000 280.000 220.000 L 280.000 216.000 284.000 216.000 L 288.000 216.000 288.000 212.000 L 288.000 208.000 292.000 208.000 L 296.000 208.000 296.000 204.000 L 296.000 200.000 300.000 200.000 L 304.000 200.000 304.000 196.000 L 304.000 192.000 308.000 192.000 L 312.000 192.000 312.000 188.000 L 312.000 184.000 316.000 184.000 L 320.000 184.000 320.000 180.000 L 320.000 176.000 324.000 176.000 L 328.000 176.000 328.000 172.000 L 328.000 168.000 332.000 168.000 L 336.000 168.000 336.000 164.000 L 336.000 160.000 340.000 160.000 L 344.000 160.000 344.000 156.000 L 344.000 152.000 324.000 152.000 L 304.000 152.000 304.000 156.000 L 304.000 160.000 308.000 160.000 L 312.000 160.000 312.000 164.000 L 312.000 168.000 308.000 168.000 L 304.000 168.000 304.000 172.000 L 304.000 176.000 300.000 176.000 L 296.000 176.000 296.000 180.000 L 296.000 184.000 292.000 184.000 L 288.000 184.000 288.000 188.000 L 288.000 192.000 284.000 192.000 L 280.000 192.000 280.000 196.000 L 280.000 200.000 276.000 200.000 L 272.000 200.000 272.000 204.000 L 272.000 208.000 268.000 208.000 L 264.000 208.000 264.000 212.000 L 264.000 216.000 260.000 216.000 L 256.000 216.000 256.000 220.000 L 256.000 224.000 252.000 224.000 L 248.000 224.000 248.000 192.000 L 248.000 160.000 252.000 160.000 L 256.000 160.000 256.000 156.000 L 256.000 152.000 236.000 152.000 L 216.000 152.000 216.000 156.000 " stroke="none" fill="#1c247c" fill-rule="evenodd"></path></g></svg>