<svg xmlns="http://www.w3.org/2000/svg" xmlns:xlink="http://www.w3.org/1999/xlink" viewBox="0,0,256,256" width="50px" height="50px" fill-rule="nonzero"><g fill="#ffffff" fill-rule="nonzero" stroke="none" stroke-width="1" stroke-linecap="butt" stroke-linejoin="miter" stroke-miterlimit="10" stroke-dasharray="" stroke-dashoffset="0" font-family="none" font-weight="none" font-size="none" text-anchor="none" style="mix-blend-mode: normal"><g transform="scale(5.12,5.12)"><path d="M38.96875,0c-3.29297,-0.01172 -10.16406,-0.12109 -13.84375,3.5625l-0.65625,0.65625v0.03125c-3.92969,3.95703 -4.38672,9.87109 -1.5625,14.3125l-20.5,18.75l-0.03125,0.03125c-0.89844,0.89844 -1.84375,2.40625 -2.125,4.28125c-0.28125,1.875 0.20313,4.10938 2.125,6.03125c1.92188,1.92188 4.15625,2.40625 6.03125,2.125c1.875,-0.28125 3.38281,-1.22656 4.28125,-2.125h0.03125v-0.03125c0,0 4.70703,-5.32422 9.46875,-10.625c2.38281,-2.65234 4.76563,-5.28906 6.59375,-7.25c0.91406,-0.98047 1.70313,-1.79687 2.25,-2.34375c0.15234,-0.15234 0.23047,-0.23828 0.34375,-0.34375c4.44531,2.92969 10.42188,2.52344 14.40625,-1.46875l0.65625,-0.65625c1.79688,-1.79297 2.62891,-4.41406 3.0625,-6.96875c0.43359,-2.55469 0.42969,-5.07812 0.4375,-6.75c0.00391,-0.38281 -0.00391,-0.75781 -0.3125,-1.125c-0.30859,-0.36719 -0.88672,-0.46484 -1.1875,-0.40625c-0.60156,0.12109 -0.84375,0.4375 -0.84375,0.4375l-0.03125,0.03125c0,0 -5.71875,5.74609 -6.5,6.53125c-0.03125,0.01953 -0.03906,0.02344 -0.09375,0.03125c-0.17969,0.02734 -0.46094,0.05859 -0.8125,0.0625c-0.69922,0.00781 -1.66016,-0.03906 -2.59375,-0.125c-0.93359,-0.08594 -1.87109,-0.23047 -2.59375,-0.375c-0.36328,-0.07422 -0.66797,-0.15234 -0.875,-0.21875c-0.07422,-0.02344 -0.11719,-0.03906 -0.15625,-0.0625c-0.02344,-0.03516 -0.04297,-0.07031 -0.0625,-0.125c-0.06641,-0.19922 -0.11719,-0.52344 -0.1875,-0.875c-0.14062,-0.70312 -0.26562,-1.61719 -0.34375,-2.53125c-0.07812,-0.91406 -0.12109,-1.83984 -0.09375,-2.53125c0.01563,-0.34766 0.02734,-0.62891 0.0625,-0.8125c0.01953,-0.08984 0.05078,-0.14062 0.0625,-0.15625c0.86719,-0.86719 6.5625,-6.53125 6.5625,-6.53125l0.03125,-0.03125v-0.03125c0,0 0.29688,-0.21094 0.4375,-0.78125c0.07031,-0.28516 0.04688,-0.83984 -0.3125,-1.1875c-0.35937,-0.34766 -0.74609,-0.40625 -1.125,-0.40625zM37.65625,2c-1.24219,1.24219 -5.08984,5.08984 -5.71875,5.71875c-0.375,0.375 -0.40234,0.69531 -0.46875,1.03125c-0.06641,0.33594 -0.10937,0.71484 -0.125,1.125c-0.03516,0.81641 0.01172,1.77344 0.09375,2.75c0.08203,0.97656 0.21094,1.94531 0.375,2.75c0.08203,0.40234 0.17578,0.77734 0.28125,1.09375c0.10547,0.31641 0.17188,0.57813 0.5,0.90625c0.33594,0.33594 0.58594,0.39453 0.90625,0.5c0.32031,0.10547 0.68359,0.19922 1.09375,0.28125c0.82031,0.16406 1.82422,0.28125 2.8125,0.375c0.98828,0.09375 1.94531,0.16406 2.75,0.15625c0.40234,-0.00391 0.77734,-0.04687 1.09375,-0.09375c0.31641,-0.04687 0.58594,0.03906 1.03125,-0.40625c0.49219,-0.49609 4.41797,-4.47266 5.6875,-5.75c-0.02344,1.55859 -0.01953,3.30469 -0.34375,5.21875c-0.39844,2.35938 -1.20312,4.60938 -2.53125,5.9375l-0.65625,0.65625c-3.86328,3.86719 -9.80859,3.76563 -13.59375,-0.03125l-5,-5c-3.78125,-3.80078 -3.87891,-9.75391 -0.03125,-13.625l0.65625,-0.6875c2.48828,-2.49219 7.74219,-2.84766 11.1875,-2.90625zM24,20c0.16406,0.1875 0.32031,0.38281 0.5,0.5625l5,5c0.13672,0.13672 0.29297,0.24609 0.4375,0.375c-0.07031,0.07031 -0.10937,0.10938 -0.1875,0.1875c-0.57812,0.57422 -1.35937,1.38672 -2.28125,2.375c-1.84375,1.97656 -4.24219,4.625 -6.625,7.28125c-4.75391,5.29297 -9.41016,10.59375 -9.4375,10.625l-0.03125,0.03125c-0.60937,0.59766 -1.85937,1.35156 -3.25,1.5625c-1.40625,0.21094 -2.91797,-0.04297 -4.46875,-1.59375c-1.55078,-1.55078 -1.83594,-3.08984 -1.625,-4.5c0.21094,-1.39062 0.99609,-2.64062 1.59375,-3.25l0.03125,-0.03125z"></path></g></g></svg>